<?xml version="1.0" standalone="no"?>
<!DOCTYPE svg PUBLIC "-//W3C//DTD SVG 20010904//EN"
 "http://www.w3.org/TR/2001/REC-SVG-20010904/DTD/svg10.dtd">
<svg version="1.0" xmlns="http://www.w3.org/2000/svg"
 width="28.000000pt" height="29.000000pt" viewBox="0 0 176.000000 177.000000"
 preserveAspectRatio="xMidYMid meet">

<g transform="translate(0.000000,177.000000) scale(0.100000,-0.100000)"
fill="#f5f5f5" stroke="none">
<path d="M645 1647 l-210 -122 -84 -140 c-46 -77 -143 -241 -215 -365 l-131
-225 -3 -244 c-2 -166 1 -253 8 -272 13 -31 247 -185 366 -241 l69 -33 440 0
440 0 195 110 c107 60 205 120 218 132 23 23 23 23 20 281 l-3 257 -215 370
-216 370 -209 122 c-122 71 -221 122 -235 122 -14 -1 -119 -55 -235 -122z
m195 -32 l0 -75 -127 0 -128 0 75 43 c41 24 98 58 125 75 28 17 51 32 53 32 1
0 2 -34 2 -75z m233 -15 c59 -34 106 -64 104 -66 -2 -3 -61 -1 -131 2 l-126 7
0 75 0 74 23 -14 c12 -8 71 -43 130 -78z m-223 -228 l0 -98 -118 -209 c-65
-116 -158 -279 -207 -363 -94 -162 -92 -159 -226 -235 l-46 -26 -91 159 c-63
108 -90 165 -85 177 8 25 373 654 391 676 13 15 36 17 199 17 l183 0 0 -98z
m458 61 c26 -39 367 -634 375 -656 4 -11 -24 -70 -85 -176 l-91 -158 -71 40
c-115 64 -85 23 -333 454 l-178 308 -3 108 -4 107 185 0 186 0 19 -27z m-263
-525 c87 -150 169 -292 182 -316 l25 -42 -366 0 c-201 0 -366 3 -366 7 0 11
354 623 360 623 4 0 78 -123 165 -272z m-905 -396 c28 -52 50 -98 48 -103 -2
-6 -31 -26 -66 -45 l-62 -35 0 153 c0 177 -1 176 80 30z m1558 -107 l-3 -74
-62 36 c-35 21 -63 42 -63 47 0 5 28 57 63 115 l62 106 3 -77 c2 -43 2 -112 0
-153z m-312 28 c76 -42 82 -48 72 -67 -43 -82 -163 -283 -176 -293 -12 -10
-109 -13 -406 -13 -215 0 -396 4 -402 8 -23 14 -187 313 -178 322 5 5 41 27
79 48 l70 40 429 1 429 1 83 -47z m-1087 -186 c35 -60 60 -111 57 -114 -3 -3
-62 27 -131 68 -78 45 -122 76 -116 82 10 10 125 77 127 74 1 -1 29 -51 63
-110z m1296 66 c36 -20 61 -40 57 -44 -13 -13 -247 -147 -250 -144 -6 6 116
225 125 225 2 0 33 -17 68 -37z"/>
</g>
</svg>
